<mxfile host="Electron" agent="Mozilla/5.0 (Windows NT 10.0; Win64; x64) AppleWebKit/537.36 (KHTML, like Gecko) draw.io/25.0.2 Chrome/128.0.6613.186 Electron/32.2.5 Safari/537.36" version="25.0.2">
  <diagram name="Page-1" id="eL__T-ELsfN5H11KKcc2">
    <mxGraphModel dx="3480" dy="3030" grid="1" gridSize="10" guides="1" tooltips="1" connect="1" arrows="1" fold="1" page="1" pageScale="1" pageWidth="850" pageHeight="1100" math="0" shadow="0">
      <root>
        <mxCell id="0" />
        <mxCell id="1" parent="0" />
        <mxCell id="F4fkGikj5AeT9HRhLZNB-1" value="Student" style="swimlane;fontStyle=1;align=center;verticalAlign=top;childLayout=stackLayout;horizontal=1;startSize=26;horizontalStack=0;resizeParent=1;resizeParentMax=0;resizeLast=0;collapsible=1;marginBottom=0;whiteSpace=wrap;html=1;" parent="1" vertex="1">
          <mxGeometry x="400" y="190" width="160" height="130" as="geometry" />
        </mxCell>
        <mxCell id="F4fkGikj5AeT9HRhLZNB-2" value="+studentID:String&lt;div&gt;+name:String&lt;/div&gt;&lt;div&gt;+email:String&lt;/div&gt;" style="text;strokeColor=none;fillColor=none;align=left;verticalAlign=top;spacingLeft=4;spacingRight=4;overflow=hidden;rotatable=0;points=[[0,0.5],[1,0.5]];portConstraint=eastwest;whiteSpace=wrap;html=1;" parent="F4fkGikj5AeT9HRhLZNB-1" vertex="1">
          <mxGeometry y="26" width="160" height="54" as="geometry" />
        </mxCell>
        <mxCell id="F4fkGikj5AeT9HRhLZNB-3" value="" style="line;strokeWidth=1;fillColor=none;align=left;verticalAlign=middle;spacingTop=-1;spacingLeft=3;spacingRight=3;rotatable=0;labelPosition=right;points=[];portConstraint=eastwest;strokeColor=inherit;" parent="F4fkGikj5AeT9HRhLZNB-1" vertex="1">
          <mxGeometry y="80" width="160" height="8" as="geometry" />
        </mxCell>
        <mxCell id="F4fkGikj5AeT9HRhLZNB-4" value="+viewCertificates():void&lt;div&gt;+viewTranscripts():void&lt;/div&gt;" style="text;strokeColor=none;fillColor=none;align=left;verticalAlign=top;spacingLeft=4;spacingRight=4;overflow=hidden;rotatable=0;points=[[0,0.5],[1,0.5]];portConstraint=eastwest;whiteSpace=wrap;html=1;" parent="F4fkGikj5AeT9HRhLZNB-1" vertex="1">
          <mxGeometry y="88" width="160" height="42" as="geometry" />
        </mxCell>
        <mxCell id="F4fkGikj5AeT9HRhLZNB-5" value="Teacher" style="swimlane;fontStyle=1;align=center;verticalAlign=top;childLayout=stackLayout;horizontal=1;startSize=26;horizontalStack=0;resizeParent=1;resizeParentMax=0;resizeLast=0;collapsible=1;marginBottom=0;whiteSpace=wrap;html=1;" parent="1" vertex="1">
          <mxGeometry x="410" y="400" width="160" height="110" as="geometry" />
        </mxCell>
        <mxCell id="F4fkGikj5AeT9HRhLZNB-6" value="+teacherID:String&lt;div&gt;+name:String&lt;/div&gt;" style="text;strokeColor=none;fillColor=none;align=left;verticalAlign=top;spacingLeft=4;spacingRight=4;overflow=hidden;rotatable=0;points=[[0,0.5],[1,0.5]];portConstraint=eastwest;whiteSpace=wrap;html=1;" parent="F4fkGikj5AeT9HRhLZNB-5" vertex="1">
          <mxGeometry y="26" width="160" height="34" as="geometry" />
        </mxCell>
        <mxCell id="F4fkGikj5AeT9HRhLZNB-7" value="" style="line;strokeWidth=1;fillColor=none;align=left;verticalAlign=middle;spacingTop=-1;spacingLeft=3;spacingRight=3;rotatable=0;labelPosition=right;points=[];portConstraint=eastwest;strokeColor=inherit;" parent="F4fkGikj5AeT9HRhLZNB-5" vertex="1">
          <mxGeometry y="60" width="160" height="8" as="geometry" />
        </mxCell>
        <mxCell id="F4fkGikj5AeT9HRhLZNB-8" value="+approveCertificates():void&lt;div&gt;+approveTranscripts():void&lt;/div&gt;" style="text;strokeColor=none;fillColor=none;align=left;verticalAlign=top;spacingLeft=4;spacingRight=4;overflow=hidden;rotatable=0;points=[[0,0.5],[1,0.5]];portConstraint=eastwest;whiteSpace=wrap;html=1;" parent="F4fkGikj5AeT9HRhLZNB-5" vertex="1">
          <mxGeometry y="68" width="160" height="42" as="geometry" />
        </mxCell>
        <mxCell id="F4fkGikj5AeT9HRhLZNB-9" value="Admin" style="swimlane;fontStyle=1;align=center;verticalAlign=top;childLayout=stackLayout;horizontal=1;startSize=26;horizontalStack=0;resizeParent=1;resizeParentMax=0;resizeLast=0;collapsible=1;marginBottom=0;whiteSpace=wrap;html=1;" parent="1" vertex="1">
          <mxGeometry x="410" y="570" width="160" height="110" as="geometry" />
        </mxCell>
        <mxCell id="F4fkGikj5AeT9HRhLZNB-10" value="+adminID:String&lt;div&gt;+name:String&lt;/div&gt;" style="text;strokeColor=none;fillColor=none;align=left;verticalAlign=top;spacingLeft=4;spacingRight=4;overflow=hidden;rotatable=0;points=[[0,0.5],[1,0.5]];portConstraint=eastwest;whiteSpace=wrap;html=1;" parent="F4fkGikj5AeT9HRhLZNB-9" vertex="1">
          <mxGeometry y="26" width="160" height="34" as="geometry" />
        </mxCell>
        <mxCell id="F4fkGikj5AeT9HRhLZNB-11" value="" style="line;strokeWidth=1;fillColor=none;align=left;verticalAlign=middle;spacingTop=-1;spacingLeft=3;spacingRight=3;rotatable=0;labelPosition=right;points=[];portConstraint=eastwest;strokeColor=inherit;" parent="F4fkGikj5AeT9HRhLZNB-9" vertex="1">
          <mxGeometry y="60" width="160" height="8" as="geometry" />
        </mxCell>
        <mxCell id="F4fkGikj5AeT9HRhLZNB-12" value="+configureTemplates():void&lt;div&gt;+manageRules():void&lt;/div&gt;" style="text;strokeColor=none;fillColor=none;align=left;verticalAlign=top;spacingLeft=4;spacingRight=4;overflow=hidden;rotatable=0;points=[[0,0.5],[1,0.5]];portConstraint=eastwest;whiteSpace=wrap;html=1;" parent="F4fkGikj5AeT9HRhLZNB-9" vertex="1">
          <mxGeometry y="68" width="160" height="42" as="geometry" />
        </mxCell>
        <mxCell id="F4fkGikj5AeT9HRhLZNB-13" value="Transcript" style="swimlane;fontStyle=1;align=center;verticalAlign=top;childLayout=stackLayout;horizontal=1;startSize=26;horizontalStack=0;resizeParent=1;resizeParentMax=0;resizeLast=0;collapsible=1;marginBottom=0;whiteSpace=wrap;html=1;" parent="1" vertex="1">
          <mxGeometry x="750" y="412" width="160" height="114" as="geometry" />
        </mxCell>
        <mxCell id="F4fkGikj5AeT9HRhLZNB-14" value="+transcriptID:String&lt;div&gt;+semester:String&lt;/div&gt;&lt;div&gt;+GPA:Float&lt;/div&gt;" style="text;strokeColor=none;fillColor=none;align=left;verticalAlign=top;spacingLeft=4;spacingRight=4;overflow=hidden;rotatable=0;points=[[0,0.5],[1,0.5]];portConstraint=eastwest;whiteSpace=wrap;html=1;" parent="F4fkGikj5AeT9HRhLZNB-13" vertex="1">
          <mxGeometry y="26" width="160" height="54" as="geometry" />
        </mxCell>
        <mxCell id="F4fkGikj5AeT9HRhLZNB-15" value="" style="line;strokeWidth=1;fillColor=none;align=left;verticalAlign=middle;spacingTop=-1;spacingLeft=3;spacingRight=3;rotatable=0;labelPosition=right;points=[];portConstraint=eastwest;strokeColor=inherit;" parent="F4fkGikj5AeT9HRhLZNB-13" vertex="1">
          <mxGeometry y="80" width="160" height="8" as="geometry" />
        </mxCell>
        <mxCell id="F4fkGikj5AeT9HRhLZNB-16" value="+generate():void" style="text;strokeColor=none;fillColor=none;align=left;verticalAlign=top;spacingLeft=4;spacingRight=4;overflow=hidden;rotatable=0;points=[[0,0.5],[1,0.5]];portConstraint=eastwest;whiteSpace=wrap;html=1;" parent="F4fkGikj5AeT9HRhLZNB-13" vertex="1">
          <mxGeometry y="88" width="160" height="26" as="geometry" />
        </mxCell>
        <mxCell id="F4fkGikj5AeT9HRhLZNB-17" value="Certificate" style="swimlane;fontStyle=1;align=center;verticalAlign=top;childLayout=stackLayout;horizontal=1;startSize=26;horizontalStack=0;resizeParent=1;resizeParentMax=0;resizeLast=0;collapsible=1;marginBottom=0;whiteSpace=wrap;html=1;" parent="1" vertex="1">
          <mxGeometry x="80" y="410" width="160" height="104" as="geometry" />
        </mxCell>
        <mxCell id="F4fkGikj5AeT9HRhLZNB-18" value="+certificateID:String&lt;div&gt;+template:String&lt;/div&gt;&lt;div&gt;+issueDate:Date&lt;/div&gt;" style="text;strokeColor=none;fillColor=none;align=left;verticalAlign=top;spacingLeft=4;spacingRight=4;overflow=hidden;rotatable=0;points=[[0,0.5],[1,0.5]];portConstraint=eastwest;whiteSpace=wrap;html=1;" parent="F4fkGikj5AeT9HRhLZNB-17" vertex="1">
          <mxGeometry y="26" width="160" height="44" as="geometry" />
        </mxCell>
        <mxCell id="F4fkGikj5AeT9HRhLZNB-19" value="" style="line;strokeWidth=1;fillColor=none;align=left;verticalAlign=middle;spacingTop=-1;spacingLeft=3;spacingRight=3;rotatable=0;labelPosition=right;points=[];portConstraint=eastwest;strokeColor=inherit;" parent="F4fkGikj5AeT9HRhLZNB-17" vertex="1">
          <mxGeometry y="70" width="160" height="8" as="geometry" />
        </mxCell>
        <mxCell id="F4fkGikj5AeT9HRhLZNB-20" value="+generate():void" style="text;strokeColor=none;fillColor=none;align=left;verticalAlign=top;spacingLeft=4;spacingRight=4;overflow=hidden;rotatable=0;points=[[0,0.5],[1,0.5]];portConstraint=eastwest;whiteSpace=wrap;html=1;" parent="F4fkGikj5AeT9HRhLZNB-17" vertex="1">
          <mxGeometry y="78" width="160" height="26" as="geometry" />
        </mxCell>
        <mxCell id="F4fkGikj5AeT9HRhLZNB-22" value="has" style="text;html=1;align=center;verticalAlign=middle;resizable=0;points=[];autosize=1;strokeColor=none;fillColor=none;" parent="1" vertex="1">
          <mxGeometry x="720" y="218" width="40" height="30" as="geometry" />
        </mxCell>
        <mxCell id="F4fkGikj5AeT9HRhLZNB-23" value="1" style="text;html=1;align=center;verticalAlign=middle;resizable=0;points=[];autosize=1;strokeColor=none;fillColor=none;" parent="1" vertex="1">
          <mxGeometry x="555" y="218" width="30" height="30" as="geometry" />
        </mxCell>
        <mxCell id="F4fkGikj5AeT9HRhLZNB-24" value="1..*" style="text;html=1;align=center;verticalAlign=middle;resizable=0;points=[];autosize=1;strokeColor=none;fillColor=none;" parent="1" vertex="1">
          <mxGeometry x="840" y="378" width="40" height="30" as="geometry" />
        </mxCell>
        <mxCell id="F4fkGikj5AeT9HRhLZNB-26" value="Owns" style="text;html=1;align=center;verticalAlign=middle;resizable=0;points=[];autosize=1;strokeColor=none;fillColor=none;" parent="1" vertex="1">
          <mxGeometry x="210" y="218" width="50" height="30" as="geometry" />
        </mxCell>
        <mxCell id="F4fkGikj5AeT9HRhLZNB-27" value="1" style="text;html=1;align=center;verticalAlign=middle;resizable=0;points=[];autosize=1;strokeColor=none;fillColor=none;" parent="1" vertex="1">
          <mxGeometry x="355" y="218" width="30" height="30" as="geometry" />
        </mxCell>
        <mxCell id="F4fkGikj5AeT9HRhLZNB-28" value="0..*" style="text;html=1;align=center;verticalAlign=middle;resizable=0;points=[];autosize=1;strokeColor=none;fillColor=none;" parent="1" vertex="1">
          <mxGeometry x="160" y="378" width="40" height="30" as="geometry" />
        </mxCell>
        <mxCell id="F4fkGikj5AeT9HRhLZNB-32" value="0..*" style="text;html=1;align=center;verticalAlign=middle;resizable=0;points=[];autosize=1;strokeColor=none;fillColor=none;" parent="1" vertex="1">
          <mxGeometry x="560.32" y="420" width="40" height="30" as="geometry" />
        </mxCell>
        <mxCell id="F4fkGikj5AeT9HRhLZNB-36" value="approves" style="text;html=1;align=center;verticalAlign=middle;resizable=0;points=[];autosize=1;strokeColor=none;fillColor=none;" parent="1" vertex="1">
          <mxGeometry x="285" y="420" width="70" height="30" as="geometry" />
        </mxCell>
        <mxCell id="F4fkGikj5AeT9HRhLZNB-37" value="0..*" style="text;html=1;align=center;verticalAlign=middle;resizable=0;points=[];autosize=1;strokeColor=none;fillColor=none;" parent="1" vertex="1">
          <mxGeometry x="240" y="418" width="40" height="30" as="geometry" />
        </mxCell>
        <mxCell id="F4fkGikj5AeT9HRhLZNB-38" value="0..*" style="text;html=1;align=center;verticalAlign=middle;resizable=0;points=[];autosize=1;strokeColor=none;fillColor=none;" parent="1" vertex="1">
          <mxGeometry x="370" y="420" width="40" height="30" as="geometry" />
        </mxCell>
        <mxCell id="F4fkGikj5AeT9HRhLZNB-40" value="Manages" style="text;html=1;align=center;verticalAlign=middle;resizable=0;points=[];autosize=1;strokeColor=none;fillColor=none;" parent="1" vertex="1">
          <mxGeometry x="680" y="588" width="70" height="30" as="geometry" />
        </mxCell>
        <mxCell id="F4fkGikj5AeT9HRhLZNB-41" value="1" style="text;html=1;align=center;verticalAlign=middle;resizable=0;points=[];autosize=1;strokeColor=none;fillColor=none;" parent="1" vertex="1">
          <mxGeometry x="570.32" y="588" width="30" height="30" as="geometry" />
        </mxCell>
        <mxCell id="F4fkGikj5AeT9HRhLZNB-42" value="0..*" style="text;html=1;align=center;verticalAlign=middle;resizable=0;points=[];autosize=1;strokeColor=none;fillColor=none;" parent="1" vertex="1">
          <mxGeometry x="870" y="528" width="40" height="30" as="geometry" />
        </mxCell>
        <mxCell id="F4fkGikj5AeT9HRhLZNB-44" value="configures" style="text;html=1;align=center;verticalAlign=middle;resizable=0;points=[];autosize=1;strokeColor=none;fillColor=none;" parent="1" vertex="1">
          <mxGeometry x="240" y="588" width="80" height="30" as="geometry" />
        </mxCell>
        <mxCell id="F4fkGikj5AeT9HRhLZNB-45" value="1" style="text;html=1;align=center;verticalAlign=middle;resizable=0;points=[];autosize=1;strokeColor=none;fillColor=none;" parent="1" vertex="1">
          <mxGeometry x="365" y="588" width="30" height="30" as="geometry" />
        </mxCell>
        <mxCell id="F4fkGikj5AeT9HRhLZNB-46" value="0..*" style="text;html=1;align=center;verticalAlign=middle;resizable=0;points=[];autosize=1;strokeColor=none;fillColor=none;" parent="1" vertex="1">
          <mxGeometry x="120" y="514" width="40" height="30" as="geometry" />
        </mxCell>
        <mxCell id="F4fkGikj5AeT9HRhLZNB-56" value="Semester" style="swimlane;fontStyle=1;align=center;verticalAlign=top;childLayout=stackLayout;horizontal=1;startSize=26;horizontalStack=0;resizeParent=1;resizeParentMax=0;resizeLast=0;collapsible=1;marginBottom=0;whiteSpace=wrap;html=1;" parent="1" vertex="1">
          <mxGeometry x="1130" y="452" width="160" height="34" as="geometry" />
        </mxCell>
        <mxCell id="F4fkGikj5AeT9HRhLZNB-58" value="" style="line;strokeWidth=1;fillColor=none;align=left;verticalAlign=middle;spacingTop=-1;spacingLeft=3;spacingRight=3;rotatable=0;labelPosition=right;points=[];portConstraint=eastwest;strokeColor=inherit;" parent="F4fkGikj5AeT9HRhLZNB-56" vertex="1">
          <mxGeometry y="26" width="160" height="8" as="geometry" />
        </mxCell>
        <mxCell id="F4fkGikj5AeT9HRhLZNB-60" value="" style="endArrow=diamondThin;endFill=1;endSize=24;html=1;rounded=0;exitX=0;exitY=0.5;exitDx=0;exitDy=0;" parent="1" source="F4fkGikj5AeT9HRhLZNB-56" edge="1">
          <mxGeometry width="160" relative="1" as="geometry">
            <mxPoint x="1060" y="468.33" as="sourcePoint" />
            <mxPoint x="910" y="470" as="targetPoint" />
          </mxGeometry>
        </mxCell>
        <mxCell id="F4fkGikj5AeT9HRhLZNB-61" value="organized into" style="text;html=1;align=center;verticalAlign=middle;resizable=0;points=[];autosize=1;strokeColor=none;fillColor=none;" parent="1" vertex="1">
          <mxGeometry x="990" y="438" width="100" height="30" as="geometry" />
        </mxCell>
        <mxCell id="F4fkGikj5AeT9HRhLZNB-67" value="Template" style="swimlane;fontStyle=1;align=center;verticalAlign=top;childLayout=stackLayout;horizontal=1;startSize=26;horizontalStack=0;resizeParent=1;resizeParentMax=0;resizeLast=0;collapsible=1;marginBottom=0;whiteSpace=wrap;html=1;" parent="1" vertex="1">
          <mxGeometry x="-270" y="430" width="160" height="34" as="geometry" />
        </mxCell>
        <mxCell id="F4fkGikj5AeT9HRhLZNB-69" value="" style="line;strokeWidth=1;fillColor=none;align=left;verticalAlign=middle;spacingTop=-1;spacingLeft=3;spacingRight=3;rotatable=0;labelPosition=right;points=[];portConstraint=eastwest;strokeColor=inherit;" parent="F4fkGikj5AeT9HRhLZNB-67" vertex="1">
          <mxGeometry y="26" width="160" height="8" as="geometry" />
        </mxCell>
        <mxCell id="F4fkGikj5AeT9HRhLZNB-71" value="" style="endArrow=diamondThin;endFill=1;endSize=24;html=1;rounded=0;entryX=-0.016;entryY=0.208;entryDx=0;entryDy=0;entryPerimeter=0;" parent="1" target="F4fkGikj5AeT9HRhLZNB-18" edge="1">
          <mxGeometry width="160" relative="1" as="geometry">
            <mxPoint x="-110" y="446.33" as="sourcePoint" />
            <mxPoint x="50" y="446.33" as="targetPoint" />
          </mxGeometry>
        </mxCell>
        <mxCell id="F4fkGikj5AeT9HRhLZNB-72" value="uses" style="text;html=1;align=center;verticalAlign=middle;resizable=0;points=[];autosize=1;strokeColor=none;fillColor=none;" parent="1" vertex="1">
          <mxGeometry x="-65" y="418" width="50" height="30" as="geometry" />
        </mxCell>
        <mxCell id="WvMjIAOOPD2BtLrsgS50-1" value="" style="endArrow=none;html=1;rounded=0;entryX=0;entryY=0.5;entryDx=0;entryDy=0;" edge="1" parent="1" target="F4fkGikj5AeT9HRhLZNB-2">
          <mxGeometry width="50" height="50" relative="1" as="geometry">
            <mxPoint x="160" y="410" as="sourcePoint" />
            <mxPoint x="210" y="360" as="targetPoint" />
            <Array as="points">
              <mxPoint x="160" y="240" />
            </Array>
          </mxGeometry>
        </mxCell>
        <mxCell id="WvMjIAOOPD2BtLrsgS50-2" value="" style="endArrow=none;html=1;rounded=0;exitX=0.06;exitY=0.727;exitDx=0;exitDy=0;exitPerimeter=0;" edge="1" parent="1" source="F4fkGikj5AeT9HRhLZNB-37">
          <mxGeometry width="50" height="50" relative="1" as="geometry">
            <mxPoint x="360" y="488" as="sourcePoint" />
            <mxPoint x="410" y="438" as="targetPoint" />
          </mxGeometry>
        </mxCell>
        <mxCell id="WvMjIAOOPD2BtLrsgS50-3" value="" style="endArrow=none;html=1;rounded=0;exitX=0.47;exitY=1.207;exitDx=0;exitDy=0;exitPerimeter=0;entryX=0;entryY=0.5;entryDx=0;entryDy=0;" edge="1" parent="1" source="F4fkGikj5AeT9HRhLZNB-20" target="F4fkGikj5AeT9HRhLZNB-10">
          <mxGeometry width="50" height="50" relative="1" as="geometry">
            <mxPoint x="138" y="518" as="sourcePoint" />
            <mxPoint x="400" y="610" as="targetPoint" />
            <Array as="points">
              <mxPoint x="155" y="613" />
            </Array>
          </mxGeometry>
        </mxCell>
        <mxCell id="WvMjIAOOPD2BtLrsgS50-4" value="" style="endArrow=none;html=1;rounded=0;entryX=0.145;entryY=1.064;entryDx=0;entryDy=0;entryPerimeter=0;" edge="1" parent="1" target="F4fkGikj5AeT9HRhLZNB-24">
          <mxGeometry width="50" height="50" relative="1" as="geometry">
            <mxPoint x="560" y="240" as="sourcePoint" />
            <mxPoint x="610.3199999999999" y="198" as="targetPoint" />
            <Array as="points">
              <mxPoint x="846" y="240" />
            </Array>
          </mxGeometry>
        </mxCell>
        <mxCell id="F4fkGikj5AeT9HRhLZNB-31" value="validates" style="text;html=1;align=center;verticalAlign=middle;resizable=0;points=[];autosize=1;strokeColor=none;fillColor=none;" parent="1" vertex="1">
          <mxGeometry x="630" y="422" width="70" height="30" as="geometry" />
        </mxCell>
        <mxCell id="WvMjIAOOPD2BtLrsgS50-8" value="0..*" style="text;html=1;align=center;verticalAlign=middle;resizable=0;points=[];autosize=1;strokeColor=none;fillColor=none;" vertex="1" parent="1">
          <mxGeometry x="710" y="422" width="40" height="30" as="geometry" />
        </mxCell>
        <mxCell id="WvMjIAOOPD2BtLrsgS50-9" value="" style="endArrow=none;html=1;rounded=0;entryX=0.977;entryY=0.761;entryDx=0;entryDy=0;entryPerimeter=0;" edge="1" parent="1" target="WvMjIAOOPD2BtLrsgS50-8">
          <mxGeometry width="50" height="50" relative="1" as="geometry">
            <mxPoint x="570" y="445" as="sourcePoint" />
            <mxPoint x="710" y="500" as="targetPoint" />
          </mxGeometry>
        </mxCell>
        <mxCell id="WvMjIAOOPD2BtLrsgS50-10" value="" style="endArrow=none;html=1;rounded=0;entryX=0.785;entryY=0.983;entryDx=0;entryDy=0;entryPerimeter=0;" edge="1" parent="1" target="F4fkGikj5AeT9HRhLZNB-16">
          <mxGeometry width="50" height="50" relative="1" as="geometry">
            <mxPoint x="570" y="617" as="sourcePoint" />
            <mxPoint x="710" y="580" as="targetPoint" />
            <Array as="points">
              <mxPoint x="876" y="617" />
            </Array>
          </mxGeometry>
        </mxCell>
      </root>
    </mxGraphModel>
  </diagram>
</mxfile>
